<svg width="185" height="22" viewBox="0 0 185 22" fill="none" xmlns="http://www.w3.org/2000/svg">
<g clip-path="url(#clip0_1269_28478)">
<path d="M4.88984 0.5H0.507812V4.78689H4.88984V0.5Z" fill="black"/>
<path d="M4.88984 6.07031H0.507812V10.3572H4.88984V6.07031Z" fill="black"/>
<path d="M4.88984 11.6426H0.507812V15.9295H4.88984V11.6426Z" fill="black"/>
<path d="M4.88984 17.2131H0.507812V21.5H4.88984V17.2131Z" fill="black"/>
<path d="M10.5852 17.2131H6.20312V21.5H10.5852V17.2131Z" fill="black"/>
<path d="M16.2805 17.2131H11.8984V21.5H16.2805V17.2131Z" fill="black"/>
<path d="M16.2805 11.6426H11.8984V15.9295H16.2805V11.6426Z" fill="black"/>
<path d="M16.2805 6.07031H11.8984V10.3572H16.2805V6.07031Z" fill="black"/>
<path d="M16.2805 0.5H11.8984V4.78689H16.2805V0.5Z" fill="black"/>
<path d="M25.9211 0.5H21.5391V4.78689H25.9211V0.5Z" fill="black"/>
<path d="M25.9211 6.07031H21.5391V10.3572H25.9211V6.07031Z" fill="black"/>
<path d="M31.6086 8.64273H27.2266V12.9296H31.6086V8.64273Z" fill="black"/>
<path d="M25.9211 17.2131H21.5391V21.5H25.9211V17.2131Z" fill="black"/>
<path d="M31.6086 17.2131H27.2266V21.5H31.6086V17.2131Z" fill="black"/>
<path d="M37.3117 17.2131H32.9297V21.5H37.3117V17.2131Z" fill="black"/>
<path d="M37.3117 11.6426H32.9297V15.9295H37.3117V11.6426Z" fill="black"/>
<path d="M31.6086 0.5H27.2266V4.78689H31.6086V0.5Z" fill="black"/>
<path d="M37.3117 0.5H32.9297V4.78689H37.3117V0.5Z" fill="black"/>
<path d="M46.9523 0.5H42.5703V4.78689H46.9523V0.5Z" fill="black"/>
<path d="M46.9523 6.07031H42.5703V10.3572H46.9523V6.07031Z" fill="black"/>
<path d="M52.6398 8.64273H48.2578V12.9296H52.6398V8.64273Z" fill="black"/>
<path d="M46.9523 17.2131H42.5703V21.5H46.9523V17.2131Z" fill="black"/>
<path d="M52.6398 17.2131H48.2578V21.5H52.6398V17.2131Z" fill="black"/>
<path d="M58.3351 17.2131H53.9531V21.5H58.3351V17.2131Z" fill="black"/>
<path d="M46.9523 11.6426H42.5703V15.9295H46.9523V11.6426Z" fill="black"/>
<path d="M52.6398 0.5H48.2578V4.78689H52.6398V0.5Z" fill="black"/>
<path d="M58.3351 0.5H53.9531V4.78689H58.3351V0.5Z" fill="black"/>
<path d="M89.007 0.5H84.625V4.78689H89.007V0.5Z" fill="black"/>
<path d="M89.007 6.07031H84.625V10.3572H89.007V6.07031Z" fill="black"/>
<path d="M94.7023 8.64273H90.3203V12.9296H94.7023V8.64273Z" fill="black"/>
<path d="M89.007 17.2131H84.625V21.5H89.007V17.2131Z" fill="black"/>
<path d="M89.007 11.6426H84.625V15.9295H89.007V11.6426Z" fill="black"/>
<path d="M94.7023 0.5H90.3203V4.78689H94.7023V0.5Z" fill="black"/>
<path d="M100.39 0.5H96.0078V4.78689H100.39V0.5Z" fill="black"/>
<path d="M67.9758 0.5H63.5938V4.78689H67.9758V0.5Z" fill="black"/>
<path d="M67.9758 6.07031H63.5938V10.3572H67.9758V6.07031Z" fill="black"/>
<path d="M73.6711 11.6426H69.2891V15.9295H73.6711V11.6426Z" fill="black"/>
<path d="M67.9758 17.2131H63.5938V21.5H67.9758V17.2131Z" fill="black"/>
<path d="M79.3664 6.07031H74.9844V10.3572H79.3664V6.07031Z" fill="black"/>
<path d="M79.3664 17.2131H74.9844V21.5H79.3664V17.2131Z" fill="black"/>
<path d="M67.9758 11.6426H63.5938V15.9295H67.9758V11.6426Z" fill="black"/>
<path d="M73.6711 0.5H69.2891V4.78689H73.6711V0.5Z" fill="black"/>
<path d="M79.3664 0.5H74.9844V4.78689H79.3664V0.5Z" fill="black"/>
<path d="M110.03 0.5H105.648V4.78689H110.03V0.5Z" fill="black"/>
<path d="M110.03 6.07031H105.648V10.3572H110.03V6.07031Z" fill="black"/>
<path d="M115.726 11.6426H111.344V15.9295H115.726V11.6426Z" fill="black"/>
<path d="M121.421 11.6426H117.039V15.9295H121.421V11.6426Z" fill="black"/>
<path d="M110.03 17.2131H105.648V21.5H110.03V17.2131Z" fill="black"/>
<path d="M121.421 6.07031H117.039V10.3572H121.421V6.07031Z" fill="black"/>
<path d="M121.421 17.2131H117.039V21.5H121.421V17.2131Z" fill="black"/>
<path d="M110.03 11.6426H105.648V15.9295H110.03V11.6426Z" fill="black"/>
<path d="M115.726 0.5H111.344V4.78689H115.726V0.5Z" fill="black"/>
<path d="M121.421 0.5H117.039V4.78689H121.421V0.5Z" fill="black"/>
<path d="M131.062 0.5H126.68V4.78689H131.062V0.5Z" fill="black"/>
<path d="M131.062 6.07031H126.68V10.3572H131.062V6.07031Z" fill="black"/>
<path d="M136.757 17.2131H132.375V21.5H136.757V17.2131Z" fill="black"/>
<path d="M131.062 17.2131H126.68V21.5H131.062V17.2131Z" fill="black"/>
<path d="M142.452 17.2131H138.07V21.5H142.452V17.2131Z" fill="black"/>
<path d="M131.062 11.6426H126.68V15.9295H131.062V11.6426Z" fill="black"/>
<path d="M136.757 0.5H132.375V4.78689H136.757V0.5Z" fill="black"/>
<path d="M142.452 0.5H138.07V4.78689H142.452V0.5Z" fill="black"/>
<path d="M152.093 0.5H147.711V4.78689H152.093V0.5Z" fill="black"/>
<path d="M152.093 6.07031H147.711V10.3572H152.093V6.07031Z" fill="black"/>
<path d="M157.788 17.2131H153.406V21.5H157.788V17.2131Z" fill="black"/>
<path d="M152.093 17.2131H147.711V21.5H152.093V17.2131Z" fill="black"/>
<path d="M163.484 17.2131H159.102V21.5H163.484V17.2131Z" fill="black"/>
<path d="M152.093 11.6426H147.711V15.9295H152.093V11.6426Z" fill="black"/>
<path d="M157.788 0.5H153.406V4.78689H157.788V0.5Z" fill="black"/>
<path d="M163.484 0.5H159.102V4.78689H163.484V0.5Z" fill="black"/>
<path d="M157.788 9.0704H153.406V13.3573H157.788V9.0704Z" fill="black"/>
<path d="M173.116 0.5H168.734V4.78689H173.116V0.5Z" fill="black"/>
<path d="M178.812 6.07031H174.43V10.3572H178.812V6.07031Z" fill="black"/>
<path d="M178.812 17.2131H174.43V21.5H178.812V17.2131Z" fill="black"/>
<path d="M178.812 11.6426H174.43V15.9295H178.812V11.6426Z" fill="black"/>
<path d="M178.812 0.5H174.43V4.78689H178.812V0.5Z" fill="black"/>
<path d="M184.507 0.5H180.125V4.78689H184.507V0.5Z" fill="black"/>
</g>
<defs>
<clipPath id="clip0_1269_28478">
<rect width="184" height="21" fill="white" transform="translate(0.507812 0.5)"/>
</clipPath>
</defs>
</svg>
